<mxfile host="Electron" agent="Mozilla/5.0 (Windows NT 10.0; Win64; x64) AppleWebKit/537.36 (KHTML, like Gecko) draw.io/24.7.5 Chrome/126.0.6478.183 Electron/31.3.0 Safari/537.36" version="24.7.5">
  <diagram name="第 1 页" id="8sgEaGdCeuTuFXh0dQ2Q">
    <mxGraphModel dx="1276" dy="606" grid="1" gridSize="10" guides="1" tooltips="1" connect="1" arrows="1" fold="1" page="1" pageScale="1" pageWidth="827" pageHeight="1169" math="0" shadow="0">
      <root>
        <mxCell id="0" />
        <mxCell id="1" parent="0" />
        <mxCell id="C9ZiDex2Id79DyY-kiYk-1" value="&lt;font style=&quot;font-size: 18px;&quot;&gt;内存分配&lt;/font&gt;" style="rounded=0;whiteSpace=wrap;html=1;" vertex="1" parent="1">
          <mxGeometry x="70" y="230" width="90" height="30" as="geometry" />
        </mxCell>
        <mxCell id="C9ZiDex2Id79DyY-kiYk-2" value="" style="shape=curlyBracket;whiteSpace=wrap;html=1;rounded=1;labelPosition=left;verticalLabelPosition=middle;align=right;verticalAlign=middle;" vertex="1" parent="1">
          <mxGeometry x="50" y="250" width="20" height="125" as="geometry" />
        </mxCell>
        <mxCell id="C9ZiDex2Id79DyY-kiYk-4" value="&lt;font style=&quot;font-size: 16px;&quot;&gt;改变内存分配方式，由单个张量离散分配转变为多算子融合的连续内存分配方式&lt;/font&gt;" style="rounded=1;whiteSpace=wrap;html=1;" vertex="1" parent="1">
          <mxGeometry x="320" y="170" width="290" height="50" as="geometry" />
        </mxCell>
        <mxCell id="C9ZiDex2Id79DyY-kiYk-5" value="" style="shape=flexArrow;endArrow=classic;html=1;rounded=0;entryX=0;entryY=0.5;entryDx=0;entryDy=0;exitX=1;exitY=0.5;exitDx=0;exitDy=0;" edge="1" parent="1" source="C9ZiDex2Id79DyY-kiYk-13" target="C9ZiDex2Id79DyY-kiYk-4">
          <mxGeometry width="50" height="50" relative="1" as="geometry">
            <mxPoint x="290" y="195" as="sourcePoint" />
            <mxPoint x="340" y="150" as="targetPoint" />
          </mxGeometry>
        </mxCell>
        <mxCell id="C9ZiDex2Id79DyY-kiYk-6" value="&lt;font style=&quot;font-size: 18px;&quot;&gt;内存复用&lt;/font&gt;" style="rounded=0;whiteSpace=wrap;html=1;" vertex="1" parent="1">
          <mxGeometry x="70" y="360" width="90" height="30" as="geometry" />
        </mxCell>
        <mxCell id="C9ZiDex2Id79DyY-kiYk-7" value="&lt;span style=&quot;color: rgba(0, 0, 0, 0.87); font-family: Roboto, &amp;quot;Noto Sans SC Sliced&amp;quot;, sans-serif; font-size: 16px; text-align: start; background-color: rgb(250, 250, 250);&quot;&gt;在内存分配流程中，会为每个算子的输入和输出都分配不同的内存，改变该策略，改为直接为该算子分配输出内存，减少了两次内存拷贝的操作&lt;/span&gt;" style="rounded=1;whiteSpace=wrap;html=1;" vertex="1" parent="1">
          <mxGeometry x="320" y="240" width="290" height="90" as="geometry" />
        </mxCell>
        <mxCell id="C9ZiDex2Id79DyY-kiYk-8" value="" style="shape=flexArrow;endArrow=classic;html=1;rounded=0;entryX=0;entryY=0.5;entryDx=0;entryDy=0;exitX=1;exitY=0.5;exitDx=0;exitDy=0;" edge="1" parent="1" target="C9ZiDex2Id79DyY-kiYk-12" source="C9ZiDex2Id79DyY-kiYk-6">
          <mxGeometry width="50" height="50" relative="1" as="geometry">
            <mxPoint x="290" y="255" as="sourcePoint" />
            <mxPoint x="340" y="210" as="targetPoint" />
          </mxGeometry>
        </mxCell>
        <mxCell id="C9ZiDex2Id79DyY-kiYk-12" value="&lt;font style=&quot;&quot;&gt;&lt;span style=&quot;font-size: 16px; color: rgba(0, 0, 0, 0.87); font-family: Roboto, &amp;quot;Noto Sans SC Sliced&amp;quot;, sans-serif; text-align: start; background-color: rgb(250, 250, 250);&quot;&gt;将生命周期结束的张量的设备内存释放回内存池并用于后续张量的内存分配，&lt;/span&gt;&lt;font style=&quot;font-size: 16px;&quot;&gt;提高内存的利用率。&lt;/font&gt;&lt;/font&gt;&lt;div&gt;&lt;span style=&quot;font-size: 16px;&quot;&gt;常见内存复用算法：1.贪心策略；2.SOMAS算法&lt;/span&gt;&lt;/div&gt;" style="rounded=1;whiteSpace=wrap;html=1;" vertex="1" parent="1">
          <mxGeometry x="210" y="340" width="400" height="70" as="geometry" />
        </mxCell>
        <mxCell id="C9ZiDex2Id79DyY-kiYk-13" value="&lt;font style=&quot;font-size: 18px;&quot;&gt;内存融合&lt;/font&gt;" style="rounded=0;whiteSpace=wrap;html=1;" vertex="1" parent="1">
          <mxGeometry x="180" y="180" width="90" height="30" as="geometry" />
        </mxCell>
        <mxCell id="C9ZiDex2Id79DyY-kiYk-14" value="" style="shape=curlyBracket;whiteSpace=wrap;html=1;rounded=1;labelPosition=left;verticalLabelPosition=middle;align=right;verticalAlign=middle;" vertex="1" parent="1">
          <mxGeometry x="160" y="200" width="20" height="90" as="geometry" />
        </mxCell>
        <mxCell id="C9ZiDex2Id79DyY-kiYk-15" value="&lt;font style=&quot;font-size: 18px;&quot;&gt;In-Place算子&lt;/font&gt;" style="rounded=0;whiteSpace=wrap;html=1;" vertex="1" parent="1">
          <mxGeometry x="180" y="270" width="110" height="30" as="geometry" />
        </mxCell>
        <mxCell id="C9ZiDex2Id79DyY-kiYk-16" value="" style="shape=flexArrow;endArrow=classic;html=1;rounded=0;entryX=0;entryY=0.5;entryDx=0;entryDy=0;exitX=1;exitY=0.5;exitDx=0;exitDy=0;" edge="1" parent="1" source="C9ZiDex2Id79DyY-kiYk-15" target="C9ZiDex2Id79DyY-kiYk-7">
          <mxGeometry width="50" height="50" relative="1" as="geometry">
            <mxPoint x="280" y="205" as="sourcePoint" />
            <mxPoint x="330" y="205" as="targetPoint" />
          </mxGeometry>
        </mxCell>
      </root>
    </mxGraphModel>
  </diagram>
</mxfile>
